<?xml version="1.0" encoding="UTF-8" standalone="no"?>
<!-- Created with Inkscape (http://www.inkscape.org/) -->

<svg
   width="512"
   height="512"
   viewBox="0 0 135.46666 135.46667"
   version="1.1"
   id="svg5"
   inkscape:version="1.1.2 (0a00cf5339, 2022-02-04)"
   sodipodi:docname="sacsicon.svg"
   xmlns:inkscape="http://www.inkscape.org/namespaces/inkscape"
   xmlns:sodipodi="http://sodipodi.sourceforge.net/DTD/sodipodi-0.dtd"
   xmlns:xlink="http://www.w3.org/1999/xlink"
   xmlns="http://www.w3.org/2000/svg"
   xmlns:svg="http://www.w3.org/2000/svg">
  <sodipodi:namedview
     id="namedview7"
     pagecolor="#ffffff"
     bordercolor="#666666"
     borderopacity="1.0"
     inkscape:pageshadow="2"
     inkscape:pageopacity="0.0"
     inkscape:pagecheckerboard="0"
     inkscape:document-units="mm"
     showgrid="false"
     units="px"
     width="512px"
     showguides="true"
     inkscape:guide-bbox="true"
     inkscape:zoom="0.77771465"
     inkscape:cx="143.36878"
     inkscape:cy="176.15715"
     inkscape:window-width="2480"
     inkscape:window-height="1384"
     inkscape:window-x="80"
     inkscape:window-y="32"
     inkscape:window-maximized="1"
     inkscape:current-layer="text3179">
    <inkscape:grid
       type="xygrid"
       id="grid1438" />
    <sodipodi:guide
       position="67.360821,74.399658"
       orientation="1,0"
       id="guide3745" />
  </sodipodi:namedview>
  <defs
     id="defs2">
    <linearGradient
       inkscape:collect="always"
       id="linearGradient868">
      <stop
         style="stop-color:#375c00;stop-opacity:0.99797475"
         offset="0"
         id="stop864" />
      <stop
         style="stop-color:#192400;stop-opacity:1"
         offset="1"
         id="stop866" />
    </linearGradient>
    <radialGradient
       inkscape:collect="always"
       xlink:href="#linearGradient868"
       id="radialGradient1843"
       cx="67.385309"
       cy="66.936875"
       fx="67.385309"
       fy="66.936875"
       r="67.368107"
       gradientTransform="matrix(1,0,0,0.97643996,0,1.5770356)"
       gradientUnits="userSpaceOnUse" />
  </defs>
  <g
     inkscape:label="Layer 1"
     inkscape:groupmode="layer"
     id="layer1">
    <path
       id="rect910"
       style="fill:url(#radialGradient1843);fill-opacity:1;stroke:#008000;stroke-width:0.973;stroke-linecap:square;stroke-linejoin:bevel;stroke-miterlimit:4;stroke-dasharray:none"
       d="m 2.64583,1.6424633 h 129.64584 c 0,0 6.77069,55.3310247 -4.7625,79.0913997 -11.28957,23.258447 -57.943759,51.557807 -57.943759,51.557807 0,0 -49.999828,-27.54478 -62.177081,-51.557807 C -4.537078,57.178029 2.64583,1.6424633 2.64583,1.6424633 Z"
       sodipodi:nodetypes="ccacac" />
    <g
       aria-label="SACS"
       id="text3179"
       style="font-size:41.7529px;line-height:1.25;letter-spacing:0px;word-spacing:0px;fill:#f9f9f9;stroke:#445016;stroke-width:1.04382">
      <path
         d="M 23.702786,54.674592 Q 23.410515,54.549333 22.533705,54.173557 21.698647,53.797781 20.821836,53.21324 19.44399,52.33643 18.650685,51.33436 17.85738,50.33229 17.439851,49.371974 q -0.417529,-1.00207 -0.542788,-1.878881 -0.125258,-0.876811 -0.125258,-1.503104 0,-1.795375 0.668046,-3.423738 0.668046,-1.670116 1.920633,-2.964456 1.169081,-1.210834 2.463421,-1.837127 1.336093,-0.668047 2.546927,-0.960317 1.252587,-0.334023 2.254657,-0.375776 1.002069,-0.04175 1.503104,-0.04175 1.503104,0 2.755691,0.208765 1.252587,0.167011 2.254657,0.459281 1.00207,0.292271 1.753622,0.584541 0.793305,0.29227 1.29434,0.542788 v 7.34851 q -0.334024,-0.250517 -0.626294,-0.501035 -0.29227,-0.250517 -0.626293,-0.459282 -0.334024,-0.208764 -0.876811,-0.501035 -0.542788,-0.29227 -1.29434,-0.58454 -0.709799,-0.29227 -1.628363,-0.459282 -0.876811,-0.208765 -1.920634,-0.208765 -0.334023,0 -0.709799,0.04175 -0.375776,0.04175 -0.709799,0.125259 -0.793305,0.208765 -1.336093,0.835058 -0.542788,0.584541 -0.542788,1.503104 0,0.668047 0.292271,1.127329 0.334023,0.459282 0.793305,0.793305 0.501035,0.29227 1.043822,0.542787 0.584541,0.208765 1.085576,0.375777 l 2.254656,0.918563 q 1.920634,0.835058 3.423738,2.087645 1.544857,1.252587 2.296409,3.340232 0.125259,0.375776 0.334024,1.210834 0.208764,0.793305 0.208764,1.878881 0,0.626293 -0.208764,1.87888 -0.167012,1.210834 -1.00207,2.672186 -1.043822,1.87888 -2.58868,2.964456 -1.544857,1.043822 -3.089714,1.544857 -1.544858,0.501035 -2.839197,0.584541 -1.29434,0.125258 -1.837128,0.125258 -1.628363,0 -3.590749,-0.334023 -1.962387,-0.29227 -3.548997,-0.751552 -0.58454,-0.167012 -1.127328,-0.375776 -0.501035,-0.208765 -1.085575,-0.417529 l 0.04175,-7.682534 q 0.29227,0.208765 0.542787,0.459282 0.292271,0.208765 0.626294,0.417529 0.208764,0.125259 0.876811,0.501035 0.668046,0.334023 1.58661,0.709799 0.960316,0.375776 2.087645,0.668047 1.127328,0.250517 2.296409,0.250517 0.08351,0 0.501035,0 0.417529,-0.04175 0.918564,-0.167012 0.542787,-0.125258 1.043822,-0.417529 0.501035,-0.334023 0.835058,-0.918563 0.08351,-0.125259 0.167012,-0.417529 0.08351,-0.292271 0.08351,-0.7098 0,-0.125258 -0.04175,-0.375776 0,-0.250517 -0.125259,-0.58454 -0.375776,-0.835058 -1.252587,-1.210834 -0.835058,-0.417529 -1.628363,-0.7098 z"
         style="font-family:'Delta BQ';-inkscape-font-specification:'Delta BQ'"
         id="path1991" />
      <path
         d="m 59.902406,66.615921 -1.544858,-4.843336 h -9.728425 l -1.711869,4.843336 H 37.606358 L 49.171911,37.138374 h 9.185637 L 69.797843,66.615921 Z M 54.015247,48.495163 q -0.125259,-0.417529 -0.208765,-0.793305 -0.08351,-0.417529 -0.167011,-0.835058 -0.08351,0.334023 -0.208765,0.709799 -0.08351,0.334023 -0.208764,0.709799 l -2.797444,8.267074 h 6.179429 z"
         style="font-family:'Delta BQ';-inkscape-font-specification:'Delta BQ'"
         id="path1993" />
      <path
         d="m 90.131429,66.991697 q -1.461351,0.250518 -2.630432,0.29227 -1.169082,0.08351 -1.711869,0.08351 -0.918564,0 -2.672186,-0.167011 -1.753622,-0.125259 -3.966525,-0.876811 -2.379915,-0.793305 -4.258796,-2.171151 -1.837128,-1.377846 -3.17322,-3.17322 -1.29434,-1.795375 -2.004139,-3.966526 -0.668047,-2.212903 -0.668047,-4.718077 0,-0.918564 0.208765,-2.839198 0.250517,-1.962386 1.336092,-4.217042 0.668047,-1.377846 1.878881,-2.922703 1.210834,-1.58661 3.131467,-2.88095 1.962387,-1.336093 4.676325,-2.212904 2.755691,-0.876811 6.471699,-0.876811 0.7098,0 1.461352,0.04175 0.793305,0.04175 1.670116,0.167012 0.918564,0.0835 2.045892,0.29227 1.127328,0.208764 2.58868,0.542788 v 7.724286 q -0.459282,-0.29227 -1.043823,-0.668046 -0.58454,-0.375777 -1.377845,-0.668047 -0.751553,-0.334023 -1.753622,-0.542788 -1.00207,-0.208764 -2.29641,-0.208764 -0.542787,0 -1.795374,0.125259 -1.252587,0.125258 -2.630433,0.751552 -2.463421,1.127328 -3.716008,3.340232 -1.210834,2.171151 -1.210834,4.75983 0,1.628363 0.417529,2.88095 0.459282,1.252587 1.085575,2.171151 0.626294,0.918564 1.29434,1.503104 0.709799,0.584541 1.210834,0.876811 0.709799,0.459282 2.171151,1.00207 1.503104,0.542788 3.632502,0.542788 0.709799,0 2.254657,-0.167012 1.58661,-0.208764 3.46549,-0.835058 0.417529,-0.167012 0.835058,-0.29227 0.417529,-0.167012 0.835058,-0.375776 l -4.258795,7.306757 z"
         style="font-family:'Delta BQ';-inkscape-font-specification:'Delta BQ'"
         id="path1995" />
      <path
         d="m 104.57792,54.674592 q -0.29227,-0.125259 -1.16908,-0.501035 -0.83506,-0.375776 -1.71187,-0.960317 -1.37784,-0.87681 -2.171148,-1.87888 -0.793305,-1.00207 -1.210834,-1.962386 -0.417529,-1.00207 -0.542787,-1.878881 -0.125259,-0.876811 -0.125259,-1.503104 0,-1.795375 0.668046,-3.423738 0.668047,-1.670116 1.920632,-2.964456 1.16908,-1.210834 2.46342,-1.837127 1.3361,-0.668047 2.54693,-0.960317 1.25259,-0.334023 2.25466,-0.375776 1.00207,-0.04175 1.5031,-0.04175 1.5031,0 2.75569,0.208765 1.25259,0.167011 2.25466,0.459281 1.00207,0.292271 1.75362,0.584541 0.79331,0.29227 1.29434,0.542788 v 7.34851 q -0.33402,-0.250517 -0.62629,-0.501035 -0.29227,-0.250517 -0.6263,-0.459282 -0.33402,-0.208764 -0.87681,-0.501035 -0.54279,-0.29227 -1.29434,-0.58454 -0.7098,-0.29227 -1.62836,-0.459282 -0.87681,-0.208765 -1.92063,-0.208765 -0.33403,0 -0.7098,0.04175 -0.37578,0.04175 -0.7098,0.125259 -0.79331,0.208765 -1.3361,0.835058 -0.54278,0.584541 -0.54278,1.503104 0,0.668047 0.29227,1.127329 0.33402,0.459282 0.7933,0.793305 0.50104,0.29227 1.04382,0.542787 0.58455,0.208765 1.08558,0.375777 l 2.25466,0.918563 q 1.92063,0.835058 3.42373,2.087645 1.54486,1.252587 2.29641,3.340232 0.12526,0.375776 0.33403,1.210834 0.20876,0.793305 0.20876,1.878881 0,0.626293 -0.20876,1.87888 -0.16701,1.210834 -1.00207,2.672186 -1.04383,1.87888 -2.58868,2.964456 -1.54486,1.043822 -3.08972,1.544857 -1.54485,0.501035 -2.83919,0.584541 -1.29434,0.125258 -1.83713,0.125258 -1.62836,0 -3.59075,-0.334023 -1.96239,-0.29227 -3.548997,-0.751552 -0.584541,-0.167012 -1.127329,-0.375776 -0.501034,-0.208765 -1.085575,-0.417529 l 0.04175,-7.682534 q 0.29227,0.208765 0.542788,0.459282 0.29227,0.208765 0.626293,0.417529 0.208765,0.125259 0.876811,0.501035 0.668049,0.334023 1.586609,0.709799 0.96032,0.375776 2.08765,0.668047 1.12733,0.250517 2.29641,0.250517 0.0835,0 0.50103,0 0.41753,-0.04175 0.91857,-0.167012 0.54278,-0.125258 1.04382,-0.417529 0.50103,-0.334023 0.83506,-0.918563 0.0835,-0.125259 0.16701,-0.417529 0.0835,-0.292271 0.0835,-0.7098 0,-0.125258 -0.0418,-0.375776 0,-0.250517 -0.12526,-0.58454 -0.37577,-0.835058 -1.25258,-1.210834 -0.83506,-0.417529 -1.62837,-0.7098 z"
         style="font-family:'Delta BQ';-inkscape-font-specification:'Delta BQ'"
         id="path1997" />
    </g>
  </g>
</svg>
